<svg xmlns="http://www.w3.org/2000/svg" viewBox="0 0 24 24" width="24" height="24">
	<style>
		tspan { white-space:pre }
		.shp0 { fill: #0d1935 } 
	</style>
	<g id="Menus">
		<g id="Top menu">
			<path id="Search" class="shp0" d="M23.99 20.87L17.6 14.52C18.53 13.06 19.07 11.33 19.07 9.47C19.07 4.25 14.8 0.01 9.54 0.01C4.28 0.01 0.01 4.25 0.01 9.47C0.01 14.69 4.28 18.93 9.54 18.93C11.32 18.93 12.98 18.44 14.41 17.6L20.85 23.99L23.99 20.87ZM3.56 9.47C3.56 6.2 6.24 3.54 9.54 3.54C12.84 3.54 15.52 6.2 15.52 9.47C15.52 12.74 12.84 15.4 9.54 15.4C6.24 15.4 3.56 12.74 3.56 9.47Z" />
		</g>
	</g>
</svg>